# xmcd CD database file
#
# Track frame offsets:
#	150
#	19762
#	39712
#	55044
#	77387
#	96103
#	116341
#	136373
#	160253
#	193674
#
# Disc length: 3324 seconds
#
# Revision: 0
# Processed by: cddbd v1.5PL3 Copyright (c) Steve Scherf et al.
# Submitted via: CDex 1.51
#
DISCID=760cfa0a
DTITLE=HYPOCRISY - The Arrival
DYEAR=2004
DGENRE=Heavy Metal
TTITLE0=Born Dead Buried Alive
TTITLE1=Eraser
TTITLE2=Stillborn
TTITLE3=Slave To The Parasites
TTITLE4=New World
TTITLE5=The Abyss
TTITLE6=Dead Sky Dawning
TTITLE7=The Departure
TTITLE8=War Within
TTITLE9=Video Clip
EXTD=YEAR: 2004
EXTT0=
EXTT1=
EXTT2=
EXTT3=
EXTT4=
EXTT5=
EXTT6=
EXTT7=
EXTT8=
EXTT9=
PLAYORDER=
